<?xml version="1.0" encoding="UTF-8"?>
<svg width="221px" height="56px" viewBox="0 0 221 56" version="1.1" xmlns="http://www.w3.org/2000/svg" xmlns:xlink="http://www.w3.org/1999/xlink">
    <title>Logo</title>
    <g id="SNET-website---V3.0" stroke="none" stroke-width="1" fill="none" fill-rule="evenodd">
        <g id="V1_a" transform="translate(-610.000000, -20.000000)" fill="#FFFFFF" fill-rule="nonzero">
            <g id="Main_Banner/Expand2" transform="translate(-180.000000, 0.000000)">
                <g id="Group-6" transform="translate(-296.222222, -263.500000)">
                    <g id="New_main_menu" transform="translate(743.222222, 283.500000)">
                        <g id="SNET-Logo---Horizontal---White---2021" transform="translate(343.000000, 0.000000)">
                            <path d="M10.06517,1.24966225 C8.02511557,3.1960915 6.23085889,5.32738516 5.21913961,7.68318258 C4.20853338,9.96564371 3.93915713,12.5116271 4.44947318,14.9576098 C4.85313013,17.3003649 6.00097823,19.4474843 7.7201455,21.0756004 C9.42190944,22.7796778 11.7244555,24.1812143 14.160922,25.6841429 C16.5812554,27.2038819 19.2436382,28.8515704 21.443969,31.3607798 C23.6548157,33.9006236 24.9559831,37.1150164 25.1390103,40.4889786 C25.3628261,43.7294405 24.5672663,46.9585337 22.8655003,49.7169164 C21.1771965,52.4093907 18.7789063,54.386181 16.2628571,55.8961408 C15.9355338,56.0925187 15.5135094,56.0029896 15.2924668,55.6902802 C15.0714243,55.3775709 15.1252666,54.946232 15.4162702,54.6984725 C17.5386263,52.8734911 19.368933,50.7503164 20.4478717,48.3739228 C21.5125618,46.0380246 21.8325723,43.4268123 21.3638255,40.8999498 C20.9953759,38.4838719 19.8206028,36.266685 18.0334626,34.6144491 C16.2816701,32.9233892 13.9710664,31.5733323 11.5114705,30.127884 C9.07016234,28.6623835 6.37712853,27.1139008 4.06115069,24.6800663 C2.89138117,23.4310805 1.9356844,21.9947856 1.23312797,20.4298953 C0.566985343,18.8677478 0.163288974,17.2047707 0.038570755,15.5090649 C-0.187334841,12.2353648 0.576950341,8.76975475 2.38789738,6.0902836 C4.13833501,3.54079389 6.49596873,1.47532687 9.24442436,0.0834428026 C9.56180631,-0.0854093023 9.95417584,0.00890380249 10.1618238,0.303956327 C10.3694717,0.599008852 10.3281331,1.003485 10.06517,1.24966225 Z" id="Path"></path>
                            <path d="M15.8761284,0.0563307401 C17.7964598,0.968782803 19.535493,2.22682828 21.0077727,3.76864731 C21.7845917,4.6087616 22.4699562,5.53029558 23.0521505,6.51749628 C23.64411,7.56860736 24.1058105,8.68900552 24.4268905,9.85354666 C24.732536,11.0477907 24.8929187,12.2750828 24.904504,13.5083758 C24.8797666,14.7320719 24.581264,20.6657027 21.3342535,23.5202983 C20.9219608,23.8120077 20.4111671,23.9256414 19.9153756,23.8359492 C19.4195842,23.7462569 18.9798638,23.4606682 18.6939246,23.0426437 C18.2911162,22.4163309 18.254322,21.619823 18.597648,20.9584857 L18.6390757,20.881515 C19.5103929,19.2251386 23.1333661,12.786734 18.9978262,5.68145932 C17.8878399,4.05186778 16.623709,2.53461817 15.2231809,1.15101113 L15.2183392,1.14666003 C14.9742088,0.886684024 14.9621808,0.483522569 15.1903717,0.209227458 C15.3576488,0.00662826381 15.6396949,-0.0562568966 15.8761284,0.0563307401 L15.8761284,0.0563307401 Z" id="Path"></path>
                            <path d="M9.31702495,55.9443893 C7.39688765,55.0316049 5.65791278,53.7735975 4.18538776,52.2320656 C3.40847538,51.3918347 2.72310681,50.4701098 2.14101701,49.4826727 C1.54896109,48.4317968 1.08724419,47.3115676 0.766245046,46.1471662 C0.46050973,44.9527631 0.300305438,43.7252529 0.289174682,42.4917789 C0.313368964,41.2680827 0.612411151,35.3350102 3.85889273,32.4804002 C4.27117196,32.1886694 4.78196659,32.0750222 5.27775921,32.1647152 C5.77355183,32.2544082 6.21326784,32.5400107 6.49918613,32.9580513 C6.90227659,33.5842735 6.93908072,34.3809371 6.59546986,35.0422128 L6.55405987,35.1192015 C5.68274267,36.7755528 2.05977661,43.2134171 6.19584179,50.3192571 C7.30568553,51.9489716 8.569839,53.4662404 9.97051906,54.8497197 L9.97482121,54.8540529 C10.2189437,55.1140322 10.2309715,55.5171875 10.0027888,55.7914854 C9.83553384,55.9941437 9.55343816,56.05704 9.31700011,55.9443893 L9.31702495,55.9443893 Z" id="Path"></path>
                            <path d="M39.4054304,32.0065385 L36.8495544,32.0065385 C36.8495544,34.999278 39.5984735,37.7983936 43.4749862,37.7983936 C47.1853725,37.7983936 49.4665533,35.5540644 49.7969317,32.810139 C50.1820666,29.7621807 48.2851227,27.738659 44.7390168,26.8246565 L42.2647928,26.2155673 C39.873183,25.6337153 39.5706231,24.3857016 39.5706231,23.554921 C39.5706231,21.8092506 41.2754753,20.6725513 43.1167397,20.6725513 C45.1789047,20.6725513 46.6906996,21.8925011 46.6906996,23.8047335 L49.2474985,23.8047335 C49.2474985,20.3675809 46.6080996,18.2065058 43.144583,18.2065058 C39.9279077,18.2065058 37.0147471,20.3675809 37.0147471,23.5820725 C37.0147471,25.2454299 37.6189155,27.5449743 41.632774,28.570327 L44.0791298,29.1803001 C45.7830732,29.5675836 47.4600714,30.537746 47.2948822,32.5884477 C47.075838,34.0300852 45.893488,35.3875598 43.4749755,35.3875598 C41.0833515,35.3875598 39.4332595,33.6698959 39.4054198,32.0065385 L39.4054304,32.0065385 Z" id="Path"></path>
                            <path d="M55.978752,37.520571 L53.5054616,37.520571 L53.5054616,24.5802987 L55.978752,24.5802987 L55.978752,37.520571 Z M53.010817,19.8137498 C53.070464,20.7336717 53.8280525,21.4490729 54.7425753,21.4490729 C55.6570982,21.4490729 56.4146866,20.7336717 56.4743336,19.8137498 C56.4141702,18.8942261 55.6567378,18.1793965 54.7425753,18.1793965 C53.8284128,18.1793965 53.0709804,18.8942261 53.010817,19.8137498 L53.010817,19.8137498 Z" id="Shape"></path>
                            <path d="M62.7220315,30.537746 C62.7220315,27.7947903 64.5363933,26.769409 66.3507373,26.769409 C68.1094161,26.769409 69.18226,28.0445455 69.18226,30.2056206 L69.18226,37.520571 L71.6833901,37.520571 L71.6833901,30.0391159 C71.6833901,26.4092484 69.923792,24.3033635 66.7349707,24.3033635 C65.3335765,24.3033635 63.4914033,24.9676109 62.7220315,26.5196539 L62.7220315,24.5802987 L60.2199962,24.5802987 L60.2199962,37.520571 L62.7220315,37.520571 L62.7220315,30.537746 L62.7220315,30.537746 Z" id="Path"></path>
                            <path d="M77.7640317,39.377588 C77.4336392,39.5441213 76.0044443,40.3477218 75.6740553,40.4861912 C76.8128298,42.6473671 79.0478074,43.9924451 81.4753516,43.9777112 C85.7082401,43.9777112 88.484069,41.6499667 88.484069,35.5540644 L88.484069,24.5802987 L86.0107928,24.5802987 L86.0107928,26.6029044 C85.1588211,25.1069641 83.2887941,24.3033635 81.5022578,24.3033635 C77.9830617,24.3033635 74.9872657,26.9630937 74.9872657,31.0925324 C74.9872657,35.1929626 77.9830581,37.7983936 81.5022578,37.7983936 C83.288787,37.7983936 85.2404875,36.9396028 86.0107928,35.4156272 C86.0107928,35.5260005 86.0386326,35.6092797 86.0386326,35.7196566 C86.0386326,40.0146839 84.2511806,41.5947944 81.4753516,41.5947944 C79.930523,41.5902896 78.5096753,40.7414507 77.7640317,39.377588 Z M85.9829531,31.0644686 C85.9975548,32.2055641 85.5524592,33.303846 84.7494238,34.1082252 C83.9463885,34.9126043 82.8540747,35.3543046 81.7222071,35.3323445 C79.4132008,35.3323445 77.5440824,33.6970473 77.5440824,31.0644686 C77.5077016,29.9290051 77.9334502,28.8279175 78.7225079,28.0167789 C79.5115655,27.2056403 80.5953149,26.7549882 81.7222071,26.7694234 C84.003388,26.7694234 85.9829531,28.2934311 85.9829531,31.0644829 L85.9829531,31.0644686 Z" id="Shape"></path>
                            <path d="M101.525178,31.5630665 C101.525178,34.3341468 99.7108303,35.332348 97.8964579,35.332348 C96.1377934,35.332348 95.0927892,34.0572116 95.0927892,31.8951955 L95.0927892,24.5802987 L92.5907397,24.5802987 L92.5907397,32.0617252 C92.5638193,35.6915927 94.3234174,37.7983936 97.539145,37.7983936 C98.9405392,37.7983936 100.75582,37.1332302 101.525178,35.5811872 L101.525178,37.5205745 L104.026294,37.5205745 L104.026294,24.5802987 L101.525178,24.5802987 L101.525178,31.5630665 Z" id="Path"></path>
                            <polygon id="Path" points="108.272958 17.5412316 108.272958 37.5204994 110.775093 37.5204994 110.775093 17.5412316 108.272958 17.5412316"></polygon>
                            <path d="M125.281678,37.520571 L127.755887,37.520571 L127.755887,24.5802987 L125.281678,24.5802987 L125.281678,26.5196646 C124.429706,25.0508435 122.559679,24.3033743 120.773146,24.3033743 C117.254866,24.3033743 114.258154,26.9078892 114.258154,31.0364119 C114.258154,35.1377509 117.254852,37.7984043 120.773146,37.7984043 C122.559675,37.7984043 124.429706,36.9948038 125.281678,35.5260113 L125.281678,37.5205817 L125.281678,37.520571 Z M125.253824,31.009239 C125.253824,33.7522268 123.274276,35.3323337 120.993095,35.3323337 C119.861815,35.3450541 118.774773,34.8899483 117.98529,34.0730729 C117.195807,33.2561975 116.772844,32.1489062 116.814967,31.009239 C116.770895,29.8766471 117.19597,28.7765762 117.988405,27.972441 C118.78084,27.1683059 119.86928,26.7325163 120.993095,26.7694234 C123.055246,26.7694234 125.253824,28.2382445 125.253824,31.009264 L125.253824,31.009239 Z" id="Shape"></path>
                            <path d="M134.512183,32.8101498 C134.512183,29.3739669 135.55625,26.7133207 138.030446,26.7133207 C138.687521,26.718769 139.335283,26.8705134 139.927408,27.1577016 L140.312543,24.8020008 C139.621223,24.4561202 138.856801,24.2849897 138.085231,24.3033743 C136.409142,24.3033743 135.172028,25.2173768 134.512194,27.4897984 L134.512194,24.5802987 L132.011064,24.5802987 L132.011064,37.520571 L134.512183,37.520571 L134.512183,32.8101498 Z" id="Path"></path>
                            <path d="M145.491113,37.520571 L143.016917,37.520571 L143.016917,24.5802987 L145.491113,24.5802987 L145.491113,37.520571 Z M142.522241,19.8137498 C142.582196,20.7336917 143.339898,21.4489602 144.254461,21.4489602 C145.169023,21.4489602 145.926726,20.7336917 145.986681,19.8137498 C145.926212,18.8942041 145.168665,18.1795039 144.254461,18.1795039 C143.340256,18.1795039 142.582709,18.8942041 142.522241,19.8137498 L142.522241,19.8137498 Z" id="Shape"></path>
                            <polygon id="Path" points="153.121477 24.5802773 153.121477 19.7031833 150.620407 19.7031833 150.620407 24.5802773 148.311373 24.5802773 148.311373 26.7132455 150.620407 26.7132455 150.620407 37.5204994 153.121477 37.5204994 153.121477 26.7132455 155.842624 26.7132455 155.842624 24.5802773 153.121477 24.5802773"></polygon>
                            <polygon id="Path" points="162.989806 43.812058 170.961566 24.5802773 168.295439 24.5802773 164.446929 33.9469456 160.599129 24.5802773 157.932647 24.5802773 163.072157 37.1333376 160.377987 43.812058 162.989806 43.812058"></polygon>
                            <polygon id="Path" points="187.588036 37.5204994 187.588036 18.4282687 185.031237 18.4282687 185.031237 32.699941 176.481952 18.4282687 173.95284 18.4282687 173.95284 37.5204994 176.509639 37.5204994 176.509639 23.1386183 185.140566 37.5204994 187.588036 37.5204994"></polygon>
                            <polygon id="Path" points="192.936265 18.4282687 192.936265 37.5204994 204.426774 37.5204994 204.426774 35.1095046 195.493064 35.1095046 195.493064 29.3468047 203.052357 29.3468047 203.052357 26.9358099 195.493064 26.9358099 195.493064 20.8392635 204.152033 20.8392635 204.152033 18.4282687 192.936265 18.4282687"></polygon>
                            <polygon id="Path" points="206.925004 18.4282687 206.925004 20.8671735 212.670792 20.8671735 212.670792 37.5204994 215.254213 37.5204994 215.254213 20.8671735 221 20.8671735 221 18.4282687 206.925004 18.4282687"></polygon>
                        </g>
                    </g>
                </g>
            </g>
        </g>
    </g>
</svg>