<?xml version="1.0" encoding="utf-8"?>
<!-- Generator: Adobe Illustrator 21.0.2, SVG Export Plug-In . SVG Version: 6.00 Build 0)  -->
<svg version="1.1" id="Layer_1" xmlns="http://www.w3.org/2000/svg" xmlns:xlink="http://www.w3.org/1999/xlink" x="0px" y="0px"
	 viewBox="0 0 78 71" style="enable-background:new 0 0 78 71;" xml:space="preserve">
<path fill="#000000" d="M38.2,65.5c0.3,0,0.6-0.1,1-0.2c0.4-0.1,0.7-0.3,0.9-0.6l29.5-29.6c0.8-0.8,1.3-1.6,1.7-2.6
	c0.4-1,0.6-1.9,0.6-2.9s-0.2-2-0.6-3s-0.9-1.9-1.7-2.6L53.9,8.2c-0.8-0.8-1.6-1.3-2.6-1.7s-2-0.6-3-0.6s-2,0.2-2.9,0.6
	c-1,0.4-1.8,0.9-2.6,1.7l-1.6,1.6l7.1,7.2c0.8,0.8,1.4,1.8,2,2.8c0.6,1.1,0.9,2.3,0.9,3.5c0,2.2-0.9,4.2-2.6,5.9
	c-1.7,1.7-3.7,2.5-5.9,2.5c-1.5,0-2.7-0.2-3.6-0.7c-1-0.4-1.9-1.1-2.7-1.9L30,22.8L14.2,38.7c-0.3,0.3-0.5,0.6-0.6,0.9
	s-0.2,0.7-0.2,1c0,0.8,0.2,1.4,0.7,1.9c0.5,0.5,1.1,0.7,1.9,0.7c0.4,0,0.7-0.1,1-0.3c0.3-0.2,0.6-0.4,0.8-0.6l12.1-12.1l3.7,3.7
	l-12,12c-0.3,0.3-0.5,0.6-0.6,1c-0.1,0.4-0.2,0.7-0.2,1.1c0,0.7,0.3,1.3,0.8,1.8c0.5,0.5,1.1,0.8,1.8,0.8c0.4,0,0.7-0.1,1-0.2
	c0.3-0.1,0.6-0.3,0.8-0.6l12.1-12.1l3.7,3.7l-12,12c-0.2,0.2-0.4,0.5-0.6,0.9c-0.1,0.4-0.2,0.7-0.2,1.1c0,0.7,0.3,1.3,0.8,1.8
	c0.5,0.5,1.1,0.8,1.8,0.8c0.4,0,0.7-0.1,1-0.2c0.3-0.1,0.6-0.3,0.9-0.6l12.1-12.1l3.7,3.7L36.4,60.9c-0.3,0.3-0.5,0.6-0.6,1
	c-0.1,0.4-0.2,0.7-0.2,1c0,0.8,0.2,1.5,0.7,1.9S37.4,65.5,38.2,65.5z M38.2,70.7c-1.9,0-3.6-0.7-5.2-2.1c-1.5-1.4-2.4-3.2-2.7-5.3
	c-2-0.3-3.6-1.1-5-2.5s-2.2-3-2.4-5c-2-0.3-3.6-1.1-4.9-2.5c-1.3-1.4-2.1-3-2.4-4.9c-2.2-0.3-3.9-1.2-5.3-2.6
	c-1.4-1.5-2.1-3.2-2.1-5.3c0-1,0.2-2,0.6-3c0.4-1,0.9-1.9,1.7-2.6L30,15.3l9.6,9.6c0.5,0.5,1,0.8,1.5,1.1c0.6,0.3,1.1,0.4,1.6,0.4
	c0.8,0,1.5-0.3,2.1-1s1-1.4,1-2.1c0-0.4-0.1-0.7-0.3-1.2s-0.5-0.9-1-1.4L32.1,8.2c-0.8-0.8-1.6-1.3-2.6-1.7c-1-0.4-2-0.6-3-0.6
	c-1,0-2,0.2-2.9,0.6c-1,0.4-1.8,0.9-2.6,1.7L7.7,21.5c-0.8,0.8-1.4,1.7-1.7,2.6s-0.5,1.9-0.6,3c-0.1,1.2,0.2,2.3,0.7,3.4
	c0.5,1.1,1.1,2.1,1.8,2.9l-3.8,3.8C3,35.9,2,34.3,1.3,32.5c-0.7-1.8-1.1-3.6-1.1-5.5c0-1.8,0.3-3.4,1-5c0.7-1.6,1.6-3,2.8-4.2
	L17.2,4.5c1.3-1.3,2.7-2.2,4.4-2.8c1.6-0.6,3.3-0.9,5-0.9s3.3,0.3,4.9,0.9c1.6,0.6,3,1.6,4.3,2.8l1.6,1.6L39,4.5
	c1.3-1.3,2.7-2.2,4.4-2.8s3.3-0.9,5-0.9s3.3,0.3,4.9,0.9c1.6,0.6,3,1.6,4.3,2.8l15.7,15.7c1.3,1.3,2.2,2.7,2.9,4.4
	c0.6,1.6,1,3.3,1,5c0,1.7-0.3,3.3-1,4.9c-0.6,1.6-1.6,3.1-2.9,4.3L43.8,68.4c-0.8,0.8-1.6,1.3-2.6,1.8S39.3,70.7,38.2,70.7z"/>
</svg>
